<?xml version="1.0" encoding="utf-8"?>
<!-- Generator: Adobe Illustrator 21.1.0, SVG Export Plug-In . SVG Version: 6.00 Build 0)  -->
<svg version="1.1" id="Слой_1" xmlns="http://www.w3.org/2000/svg" xmlns:xlink="http://www.w3.org/1999/xlink" x="0px" y="0px"
	 viewBox="0 0 512 512" enable-background="new 0 0 512 512" xml:space="preserve">
<path d="M383.9,64h-32c0-35.4-43-64-96-64c-53,0-96,28.7-96,64h-32c-35.3,0-64,28.6-64,64v320c0,35.3,28.7,64,64,64h255.9
	c35.4,0,64-28.7,64-64V128C447.9,92.7,419.3,64,383.9,64z M256,32c35.3,0,64,9.9,64,32H192C192,41.9,220.7,32,256,32z M416,448
	c0,17.7-14.3,32-32,32H128.1c-17.7,0-32-14.3-32-32v-32H416V448z M416,384H96V128c0-17.7,14.3-32,32-32h32v96h32V96h128v96h32V96h32
	c17.7,0,32,14.3,32,32V384z"/>
</svg>
