<?xml version="1.0" encoding="utf-8"?>
<!-- Generator: Adobe Illustrator 21.1.0, SVG Export Plug-In . SVG Version: 6.00 Build 0)  -->
<svg version="1.1" id="Слой_1" xmlns="http://www.w3.org/2000/svg" xmlns:xlink="http://www.w3.org/1999/xlink" x="0px" y="0px"
	 viewBox="0 0 512 512" enable-background="new 0 0 512 512" xml:space="preserve">
<path d="M507.1,484.1L375,354c34.6-37.6,55.9-87.3,55.9-142.1c0-117.1-96.4-212-215.4-212C96.4,0,0,94.9,0,211.9
	c0,117.1,96.4,212,215.4,212c51.4,0,98.6-17.8,135.6-47.3l132.7,130.6c6.5,6.4,17,6.4,23.4,0C513.6,500.8,513.6,490.5,507.1,484.1z
	 M215.4,391.3c-100.7,0-182.3-80.3-182.3-179.4c0-99.1,81.6-179.4,182.3-179.4c100.7,0,182.3,80.3,182.3,179.4
	C397.7,311,316.1,391.3,215.4,391.3z"/>
</svg>
