<?xml version="1.0" encoding="utf-8"?>
<!-- Generator: Adobe Illustrator 21.1.0, SVG Export Plug-In . SVG Version: 6.00 Build 0)  -->
<svg version="1.1" id="Слой_1" xmlns="http://www.w3.org/2000/svg" xmlns:xlink="http://www.w3.org/1999/xlink" x="0px" y="0px"
	 viewBox="0 0 512 358.6" enable-background="new 0 0 512 358.6" xml:space="preserve">
<path d="M509.7,140.9l-95.5,195.4c-6,12.3-22,22.3-35.6,22.3h-355c-13.6,0-19.8-10.1-13.8-22.3l95.5-195.4c6-12.3,22-22.4,35.6-22.4
	h355C509.5,118.5,515.7,128.6,509.7,140.9z M83.1,129.9L0,299.9V76.9c0-13.7,11.1-25,24.7-25h108.8V37.4c0-10,3.8-19.3,10.9-26.4
	c7-7.1,16.3-11,26.2-11h63.3c20.4,0,37.1,16.8,37.1,37.4V52h108.8c13.6,0,24.7,11.2,24.7,25v16.6H140.9
	C118.1,93.6,93.2,109.2,83.1,129.9z M158.2,52h88V37.4c0-6.9-5.5-12.5-12.4-12.5h-63.3c-3.3,0-6.4,1.3-8.7,3.7
	c-2.3,2.4-3.6,5.5-3.6,8.8V52z"/>
</svg>
