<?xml version="1.0" encoding="utf-8"?>
<!-- Generator: Adobe Illustrator 21.1.0, SVG Export Plug-In . SVG Version: 6.00 Build 0)  -->
<svg version="1.1" id="Слой_1" xmlns="http://www.w3.org/2000/svg" xmlns:xlink="http://www.w3.org/1999/xlink" x="0px" y="0px"
	 viewBox="0 0 512 512" enable-background="new 0 0 512 512" xml:space="preserve">
<path d="M507,202.8L353.5,356.3L0,512l155.7-353.6L309.2,5c6.7-6.7,17.5-6.7,24.2,0c6.7,6.7,6.7,17.5,0,24.2L184.5,178.1L92.2,387.5
	l32.3,32.3l209.4-92.2l148.9-148.9c6.7-6.7,17.5-6.7,24.2,0C513.7,185.3,513.7,196.2,507,202.8z M314.2,296.9c-3.3,3.3-7.7,5-12.1,5
	c-4.4,0-8.8-1.7-12.1-5c-6.7-6.7-6.7-17.5,0-24.2l143.4-143.4c6.7-6.7,17.5-6.7,24.2,0c6.7,6.7,6.7,17.5,0,24.2L314.2,296.9z
	 M276.8,259.5c-3.3,3.3-7.7,5-12.1,5c-4.4,0-8.8-1.7-12.1-5c-6.7-6.7-6.7-17.5,0-24.2L396,91.9c6.7-6.7,17.5-6.7,24.2,0
	c6.7,6.7,6.7,17.5,0,24.2L276.8,259.5z M239.3,222c-3.3,3.4-7.7,5-12.1,5s-8.8-1.7-12.1-5c-6.7-6.7-6.7-17.5,0-24.2L358.5,54.4
	c6.7-6.7,17.5-6.7,24.2,0c6.7,6.7,6.7,17.5,0,24.2L239.3,222z"/>
</svg>
