<?xml version="1.0" encoding="utf-8"?>
<!-- Generator: Adobe Illustrator 21.1.0, SVG Export Plug-In . SVG Version: 6.00 Build 0)  -->
<svg version="1.1" id="Слой_1" xmlns="http://www.w3.org/2000/svg" xmlns:xlink="http://www.w3.org/1999/xlink" x="0px" y="0px"
	 viewBox="0 0 512 512" enable-background="new 0 0 512 512" xml:space="preserve">
<path d="M512.1,255.9c0-19-13.7-39.4-30.6-45.3c-16.9-6-33.3-20.7-38.1-32.2c-4.8-11.5-3.5-33.6,4.2-49.8c7.7-16.2,3-40.3-10.4-53.8
	c-13.5-13.5-37.5-18.1-53.7-10.4c-16.2,7.7-38.2,9-49.7,4.2c-11.5-4.8-26.2-21.2-32.2-38.1c-6-16.9-26.3-30.6-45.4-30.6
	c-19.1,0-39.4,13.7-45.4,30.6c-6,16.9-20.7,33.3-32.2,38.1c-11.5,4.8-33.5,3.5-49.7-4.2c-16.2-7.7-40.3-3.1-53.7,10.4
	C61.6,88.3,57,112.3,64.7,128.5c7.7,16.2,8.9,38.2,4.1,49.7c-4.8,11.5-21.1,26.2-38.1,32.2c-16.9,6-30.6,26.3-30.6,45.3
	c0,19.1,13.7,39.4,30.6,45.4c16.9,6,33.3,20.7,38.1,32.2s3.5,33.5-4.2,49.7s-3,40.3,10.4,53.7c13.5,13.5,37.5,18.1,53.7,10.4
	c16.2-7.7,38.2-8.9,49.7-4.1c11.5,4.8,26.2,21.2,32.2,38.1c6,16.9,26.3,30.6,45.4,30.6c19,0,39.4-13.7,45.4-30.6
	c6-16.9,20.7-33.3,32.2-38.1c11.5-4.8,33.5-3.5,49.7,4.2c16.2,7.7,40.3,3.1,53.7-10.4c13.5-13.5,18.1-37.5,10.4-53.7
	c-7.7-16.2-9-38.2-4.2-49.7c4.8-11.5,21.2-26.2,38.1-32.2C498.4,295.2,512.1,274.9,512.1,255.9z M256.1,349.8
	c-51.9,0-93.9-42-93.9-93.8c0-51.9,42-93.9,93.9-93.9C308,162,350,204,350,256C350,307.8,308,349.8,256.1,349.8z"/>
</svg>
